<svg xmlns="http://www.w3.org/2000/svg" xmlns:xlink="http://www.w3.org/1999/xlink" width="3760" height="1056" viewBox="0 0 2819.57 792"><g id="graph0" class="graph" transform="scale(1 1) rotate(0) translate(4 788)"><title>G</title><polygon fill="#fff" stroke="transparent" points="-4 4 -4 -788 2815.573 -788 2815.573 4 -4 4"/><g id="node1" class="node"><title>A0</title><polygon fill="#fff8dc" stroke="#000" points="60.724 -532.5 60.724 -572.5 228.185 -572.5 228.185 -532.5 60.724 -532.5"/><text x="144.454" y="-559.5" fill="#000" font-family="Helvetica,sans-Serif" font-size="10" text-anchor="middle">Frontdoor</text><polyline fill="none" stroke="#000" points="60.724 -552.5 228.185 -552.5"/><text x="144.454" y="-539.5" fill="#000" font-family="Helvetica,sans-Serif" font-size="10" text-anchor="middle">-properties:FrontdoorProperties</text></g><g id="node3" class="node"><title>A2</title><polygon fill="#fff8dc" stroke="#000" points="66.216 -375.5 66.216 -439.5 228.692 -439.5 228.692 -375.5 66.216 -375.5"/><text x="147.454" y="-426.5" fill="#000" font-family="Helvetica,sans-Serif" font-size="10" text-anchor="middle">FrontdoorProperties</text><polyline fill="none" stroke="#000" points="66.216 -419.5 228.692 -419.5"/><text x="147.454" y="-406.5" fill="#000" font-family="Helvetica,sans-Serif" font-size="10" text-anchor="middle">-resourceState:ResourceState</text><text x="147.454" y="-394.5" fill="#000" font-family="Helvetica,sans-Serif" font-size="10" text-anchor="middle">-provisioningState:string</text><text x="147.454" y="-382.5" fill="#000" font-family="Helvetica,sans-Serif" font-size="10" text-anchor="middle">-cname:string</text></g><g id="edge1" class="edge"><title>A0-&gt;A2</title><path fill="none" stroke="#000" d="M144.8716,-532.3384C145.3113,-511.086 146.0169,-476.9856 146.5795,-449.791"/><polygon fill="#000" stroke="#000" points="146.787 -439.748 151.079 -449.839 146.684 -444.747 146.58 -449.746 146.58 -449.746 146.58 -449.746 146.684 -444.747 142.081 -449.652 146.787 -439.748 146.787 -439.748"/></g><g id="node2" class="node"><title>A1</title><polygon fill="#fff8dc" stroke="#000" points="692.415 -496.5 692.415 -608.5 990.494 -608.5 990.494 -496.5 692.415 -496.5"/><text x="841.455" y="-595.5" fill="#000" font-family="Helvetica,sans-Serif" font-size="10" text-anchor="middle">FrontdoorUpdateParameters</text><polyline fill="none" stroke="#000" points="692.415 -588.5 990.494 -588.5"/><text x="841.455" y="-575.5" fill="#000" font-family="Helvetica,sans-Serif" font-size="10" text-anchor="middle">-friendlyName:string</text><text x="841.455" y="-563.5" fill="#000" font-family="Helvetica,sans-Serif" font-size="10" text-anchor="middle">-routingRules:Array&lt;RoutingRule&gt;</text><text x="841.455" y="-551.5" fill="#000" font-family="Helvetica,sans-Serif" font-size="10" text-anchor="middle">-loadBalancingSettings:Array&lt;LoadBalancingSettingsModel&gt;</text><text x="841.455" y="-539.5" fill="#000" font-family="Helvetica,sans-Serif" font-size="10" text-anchor="middle">-healthProbeSettings:Array&lt;HealthProbeSettingsModel&gt;</text><text x="841.455" y="-527.5" fill="#000" font-family="Helvetica,sans-Serif" font-size="10" text-anchor="middle">-backendPools:Array&lt;BackendPool&gt;</text><text x="841.455" y="-515.5" fill="#000" font-family="Helvetica,sans-Serif" font-size="10" text-anchor="middle">-frontendEndpoints:Array&lt;FrontendEndpoint&gt;</text><text x="841.455" y="-503.5" fill="#000" font-family="Helvetica,sans-Serif" font-size="10" text-anchor="middle">-enabledState:string</text></g><g id="edge35" class="edge"><title>A1-&gt;A2</title><path fill="none" stroke="#000" stroke-dasharray="5 2" d="M682.2856,-495.8134C537.7665,-460.2218 496.4322,-470.1851 353.4545,-446 312.3793,-439.052 266.8376,-430.6174 229.0417,-423.416"/><polygon fill="none" stroke="#000" points="681.864 -499.315 692.413 -498.34 683.558 -492.523 681.864 -499.315"/><text x="248.426" y="-415.493" fill="#000" font-family="Helvetica,sans-Serif" font-size="10" text-anchor="middle">allOf</text></g><g id="node6" class="node"><title>A5</title><polygon fill="#fff8dc" stroke="#000" points="362.89 -375.5 362.89 -439.5 542.019 -439.5 542.019 -375.5 362.89 -375.5"/><text x="452.454" y="-426.5" fill="#000" font-family="Helvetica,sans-Serif" font-size="10" text-anchor="middle">RoutingRule</text><polyline fill="none" stroke="#000" points="362.89 -419.5 542.019 -419.5"/><text x="452.454" y="-406.5" fill="#000" font-family="Helvetica,sans-Serif" font-size="10" text-anchor="middle">-properties:RoutingRuleProperties</text><text x="452.454" y="-394.5" fill="#000" font-family="Helvetica,sans-Serif" font-size="10" text-anchor="middle">-name:string</text><text x="452.454" y="-382.5" fill="#000" font-family="Helvetica,sans-Serif" font-size="10" text-anchor="middle">-type:string</text></g><g id="edge2" class="edge"><title>A1-&gt;A5</title><path fill="none" stroke="#000" d="M692.2321,-498.313C646.9499,-481.7046 597.1091,-463.2586 551.4545,-446 549.0395,-445.0871 546.5926,-444.1588 544.1244,-443.2197"/><polygon fill="#000" stroke="#000" points="534.522 -439.553 545.469 -438.916 539.193 -441.337 543.864 -443.12 543.864 -443.12 543.864 -443.12 539.193 -441.337 542.259 -447.324 534.522 -439.553 534.522 -439.553"/></g><g id="node11" class="node"><title>A10</title><polygon fill="#fff8dc" stroke="#000" points="560.264 -375.5 560.264 -439.5 786.645 -439.5 786.645 -375.5 560.264 -375.5"/><text x="673.455" y="-426.5" fill="#000" font-family="Helvetica,sans-Serif" font-size="10" text-anchor="middle">LoadBalancingSettingsModel</text><polyline fill="none" stroke="#000" points="560.264 -419.5 786.645 -419.5"/><text x="673.455" y="-406.5" fill="#000" font-family="Helvetica,sans-Serif" font-size="10" text-anchor="middle">-properties:LoadBalancingSettingsProperties</text><text x="673.455" y="-394.5" fill="#000" font-family="Helvetica,sans-Serif" font-size="10" text-anchor="middle">-name:string</text><text x="673.455" y="-382.5" fill="#000" font-family="Helvetica,sans-Serif" font-size="10" text-anchor="middle">-type:string</text></g><g id="edge3" class="edge"><title>A1-&gt;A10</title><path fill="none" stroke="#000" d="M776.5013,-496.4392C757.1241,-479.7148 736.3194,-461.7584 718.5129,-446.3897"/><polygon fill="#000" stroke="#000" points="710.558 -439.524 721.069 -442.651 714.344 -442.791 718.129 -446.058 718.129 -446.058 718.129 -446.058 714.344 -442.791 715.188 -449.465 710.558 -439.524 710.558 -439.524"/></g><g id="node15" class="node"><title>A14</title><polygon fill="#fff8dc" stroke="#000" points="1036.549 -375.5 1036.549 -439.5 1252.361 -439.5 1252.361 -375.5 1036.549 -375.5"/><text x="1144.455" y="-426.5" fill="#000" font-family="Helvetica,sans-Serif" font-size="10" text-anchor="middle">HealthProbeSettingsModel</text><polyline fill="none" stroke="#000" points="1036.549 -419.5 1252.361 -419.5"/><text x="1144.455" y="-406.5" fill="#000" font-family="Helvetica,sans-Serif" font-size="10" text-anchor="middle">-properties:HealthProbeSettingsProperties</text><text x="1144.455" y="-394.5" fill="#000" font-family="Helvetica,sans-Serif" font-size="10" text-anchor="middle">-name:string</text><text x="1144.455" y="-382.5" fill="#000" font-family="Helvetica,sans-Serif" font-size="10" text-anchor="middle">-type:string</text></g><g id="edge4" class="edge"><title>A1-&gt;A14</title><path fill="none" stroke="#000" d="M958.6022,-496.4392C995.4395,-478.8108 1035.1371,-459.8136 1068.3476,-443.9208"/><polygon fill="#000" stroke="#000" points="1077.535 -439.524 1070.457 -447.9 1073.025 -441.683 1068.514 -443.841 1068.514 -443.841 1068.514 -443.841 1073.025 -441.683 1066.572 -439.782 1077.535 -439.524 1077.535 -439.524"/></g><g id="node19" class="node"><title>A18</title><polygon fill="#fff8dc" stroke="#000" points="1713.939 -375.5 1713.939 -439.5 1896.97 -439.5 1896.97 -375.5 1713.939 -375.5"/><text x="1805.455" y="-426.5" fill="#000" font-family="Helvetica,sans-Serif" font-size="10" text-anchor="middle">BackendPool</text><polyline fill="none" stroke="#000" points="1713.939 -419.5 1896.97 -419.5"/><text x="1805.455" y="-406.5" fill="#000" font-family="Helvetica,sans-Serif" font-size="10" text-anchor="middle">-properties:BackendPoolProperties</text><text x="1805.455" y="-394.5" fill="#000" font-family="Helvetica,sans-Serif" font-size="10" text-anchor="middle">-name:string</text><text x="1805.455" y="-382.5" fill="#000" font-family="Helvetica,sans-Serif" font-size="10" text-anchor="middle">-type:string</text></g><g id="edge5" class="edge"><title>A1-&gt;A18</title><path fill="none" stroke="#000" d="M990.8524,-497.911C993.7343,-497.2372 996.6036,-496.5989 999.4545,-496 1307.2987,-431.3296 1398.4114,-514.3727 1705.4545,-446 1709.9161,-445.0065 1714.4425,-443.849 1718.9801,-442.5682"/><polygon fill="#000" stroke="#000" points="1728.911 -439.583 1720.63 -446.771 1724.122 -441.022 1719.334 -442.462 1719.334 -442.462 1719.334 -442.462 1724.122 -441.022 1718.039 -438.152 1728.911 -439.583 1728.911 -439.583"/></g><g id="node27" class="node"><title>A26</title><polygon fill="#fff8dc" stroke="#000" points="1492.658 -375.5 1492.658 -439.5 1696.252 -439.5 1696.252 -375.5 1492.658 -375.5"/><text x="1594.455" y="-426.5" fill="#000" font-family="Helvetica,sans-Serif" font-size="10" text-anchor="middle">FrontendEndpoint</text><polyline fill="none" stroke="#000" points="1492.658 -419.5 1696.252 -419.5"/><text x="1594.455" y="-406.5" fill="#000" font-family="Helvetica,sans-Serif" font-size="10" text-anchor="middle">-properties:FrontendEndpointProperties</text><text x="1594.455" y="-394.5" fill="#000" font-family="Helvetica,sans-Serif" font-size="10" text-anchor="middle">-name:string</text><text x="1594.455" y="-382.5" fill="#000" font-family="Helvetica,sans-Serif" font-size="10" text-anchor="middle">-type:string</text></g><g id="edge6" class="edge"><title>A1-&gt;A26</title><path fill="none" stroke="#000" d="M990.8802,-498.0381C993.7535,-497.3254 996.6136,-496.6448 999.4545,-496 1210.3468,-448.1351 1272.3358,-492.8561 1483.4545,-446 1488.4295,-444.8958 1493.4907,-443.6405 1498.5739,-442.274"/><polygon fill="#000" stroke="#000" points="1508.359 -439.52 1499.953 -446.561 1503.546 -440.874 1498.734 -442.229 1498.734 -442.229 1498.734 -442.229 1503.546 -440.874 1497.514 -437.897 1508.359 -439.52 1508.359 -439.52"/></g><g id="node31" class="node"><title>A30</title><polygon fill="#fff8dc" stroke="#000" points="981.39 -135.5 981.39 -171.5 1075.519 -171.5 1075.519 -135.5 981.39 -135.5"/><text x="1028.455" y="-150.5" fill="#000" font-family="Helvetica,sans-Serif" font-size="10" text-anchor="middle">ResourceState</text></g><g id="edge7" class="edge"><title>A2-&gt;A30</title><path fill="none" stroke="#000" d="M177.8835,-375.4472C216.721,-336.7517 287.8623,-273.0171 362.4545,-242 472.3859,-196.2882 830.4955,-167.2038 971.071,-157.2962"/><polygon fill="#000" stroke="#000" points="981.209 -156.588 971.546 -161.774 976.221 -156.937 971.233 -157.285 971.233 -157.285 971.233 -157.285 976.221 -156.937 970.919 -152.796 981.209 -156.588 981.209 -156.588"/></g><g id="node4" class="node"><title>A3</title><polygon fill="#fff8dc" stroke="#000" points="0 -695.5 0 -747.5 136.909 -747.5 136.909 -695.5 0 -695.5"/><text x="68.454" y="-734.5" fill="#000" font-family="Helvetica,sans-Serif" font-size="10" text-anchor="middle">FrontdoorListResult</text><polyline fill="none" stroke="#000" points="0 -727.5 136.909 -727.5"/><text x="68.454" y="-714.5" fill="#000" font-family="Helvetica,sans-Serif" font-size="10" text-anchor="middle">-value:Array&lt;Frontdoor&gt;</text><text x="68.454" y="-702.5" fill="#000" font-family="Helvetica,sans-Serif" font-size="10" text-anchor="middle">-nextLink:string</text></g><g id="edge8" class="edge"><title>A3-&gt;A0</title><path fill="none" stroke="#000" d="M80.1629,-695.4641C93.936,-664.8372 116.7473,-614.112 131.1697,-582.0412"/><polygon fill="#000" stroke="#000" points="135.357 -572.73 135.36 -583.696 133.306 -577.29 131.256 -581.85 131.256 -581.85 131.256 -581.85 133.306 -577.29 127.151 -580.005 135.357 -572.73 135.357 -572.73"/></g><g id="node5" class="node"><title>A4</title><polygon fill="#fff8dc" stroke="#000" points="1823.216 -701.5 1823.216 -741.5 1975.693 -741.5 1975.693 -701.5 1823.216 -701.5"/><text x="1899.455" y="-728.5" fill="#000" font-family="Helvetica,sans-Serif" font-size="10" text-anchor="middle">PurgeParameters</text><polyline fill="none" stroke="#000" points="1823.216 -721.5 1975.693 -721.5"/><text x="1899.455" y="-708.5" fill="#000" font-family="Helvetica,sans-Serif" font-size="10" text-anchor="middle">-contentPaths:Array&lt;string&gt;</text></g><g id="node7" class="node"><title>A6</title><polygon fill="#fff8dc" stroke="#000" points="371.216 -260.5 371.216 -300.5 533.692 -300.5 533.692 -260.5 371.216 -260.5"/><text x="452.454" y="-287.5" fill="#000" font-family="Helvetica,sans-Serif" font-size="10" text-anchor="middle">RoutingRuleProperties</text><polyline fill="none" stroke="#000" points="371.216 -280.5 533.692 -280.5"/><text x="452.454" y="-267.5" fill="#000" font-family="Helvetica,sans-Serif" font-size="10" text-anchor="middle">-resourceState:ResourceState</text></g><g id="edge9" class="edge"><title>A5-&gt;A6</title><path fill="none" stroke="#000" d="M452.4545,-375.4525C452.4545,-355.6124 452.4545,-330.292 452.4545,-310.7885"/><polygon fill="#000" stroke="#000" points="452.454 -300.623 456.955 -310.623 452.454 -305.623 452.455 -310.623 452.455 -310.623 452.455 -310.623 452.454 -305.623 447.955 -310.624 452.454 -300.623 452.454 -300.623"/></g><g id="edge10" class="edge"><title>A6-&gt;A30</title><path fill="none" stroke="#000" d="M533.7596,-262.5734C652.0042,-236.5021 868.4982,-188.7681 971.3212,-166.0971"/><polygon fill="#000" stroke="#000" points="981.207 -163.917 972.411 -170.465 976.324 -164.994 971.442 -166.071 971.442 -166.071 971.442 -166.071 976.324 -164.994 970.473 -161.676 981.207 -163.917 981.207 -163.917"/></g><g id="node8" class="node"><title>A7</title><polygon fill="#fff8dc" stroke="#000" points="284.166 -526.5 284.166 -578.5 432.743 -578.5 432.743 -526.5 284.166 -526.5"/><text x="358.454" y="-565.5" fill="#000" font-family="Helvetica,sans-Serif" font-size="10" text-anchor="middle">RoutingRuleListResult</text><polyline fill="none" stroke="#000" points="284.166 -558.5 432.743 -558.5"/><text x="358.454" y="-545.5" fill="#000" font-family="Helvetica,sans-Serif" font-size="10" text-anchor="middle">-value:Array&lt;RoutingRule&gt;</text><text x="358.454" y="-533.5" fill="#000" font-family="Helvetica,sans-Serif" font-size="10" text-anchor="middle">-nextLink:string</text></g><g id="edge11" class="edge"><title>A7-&gt;A5</title><path fill="none" stroke="#000" d="M375.4772,-526.2416C389.5805,-504.4864 409.8646,-473.1973 426.0704,-448.199"/><polygon fill="#000" stroke="#000" points="431.616 -439.645 429.952 -450.484 428.896 -443.841 426.176 -448.036 426.176 -448.036 426.176 -448.036 428.896 -443.841 422.4 -445.588 431.616 -439.645 431.616 -439.645"/></g><g id="node9" class="node"><title>A8</title><polygon fill="#fff8dc" stroke="#000" points="1189.761 -659.5 1189.761 -783.5 1401.148 -783.5 1401.148 -659.5 1189.761 -659.5"/><text x="1295.455" y="-770.5" fill="#000" font-family="Helvetica,sans-Serif" font-size="10" text-anchor="middle">RoutingRuleUpdateParameters</text><polyline fill="none" stroke="#000" points="1189.761 -763.5 1401.148 -763.5"/><text x="1295.455" y="-750.5" fill="#000" font-family="Helvetica,sans-Serif" font-size="10" text-anchor="middle">-frontendEndpoints:Array&lt;SubResource&gt;</text><text x="1295.455" y="-738.5" fill="#000" font-family="Helvetica,sans-Serif" font-size="10" text-anchor="middle">-acceptedProtocols:Array&lt;string&gt;</text><text x="1295.455" y="-726.5" fill="#000" font-family="Helvetica,sans-Serif" font-size="10" text-anchor="middle">-patternsToMatch:Array&lt;string&gt;</text><text x="1295.455" y="-714.5" fill="#000" font-family="Helvetica,sans-Serif" font-size="10" text-anchor="middle">-customForwardingPath:string</text><text x="1295.455" y="-702.5" fill="#000" font-family="Helvetica,sans-Serif" font-size="10" text-anchor="middle">-forwardingProtocol:string</text><text x="1295.455" y="-690.5" fill="#000" font-family="Helvetica,sans-Serif" font-size="10" text-anchor="middle">-cacheConfiguration:CacheConfiguration</text><text x="1295.455" y="-678.5" fill="#000" font-family="Helvetica,sans-Serif" font-size="10" text-anchor="middle">-backendPool:SubResource</text><text x="1295.455" y="-666.5" fill="#000" font-family="Helvetica,sans-Serif" font-size="10" text-anchor="middle">-enabledState:string</text></g><g id="edge37" class="edge"><title>A8-&gt;A6</title><path fill="none" stroke="#000" stroke-dasharray="5 2" d="M1179.6798,-717.2619C925.197,-706.7559 334.9492,-675.4174 275.4545,-609 185.7633,-508.8725 357.7565,-355.2411 426.145,-300.623"/><polygon fill="none" stroke="#000" points="1179.563 -720.76 1189.697 -717.672 1179.849 -713.766 1179.563 -720.76"/><text x="417.549" y="-315.681" fill="#000" font-family="Helvetica,sans-Serif" font-size="10" text-anchor="middle">allOf</text></g><g id="node23" class="node"><title>A22</title><polygon fill="#fff8dc" stroke="#000" points="1008.62 -526.5 1008.62 -578.5 1198.289 -578.5 1198.289 -526.5 1008.62 -526.5"/><text x="1103.455" y="-565.5" fill="#000" font-family="Helvetica,sans-Serif" font-size="10" text-anchor="middle">CacheConfiguration</text><polyline fill="none" stroke="#000" points="1008.62 -558.5 1198.289 -558.5"/><text x="1103.455" y="-545.5" fill="#000" font-family="Helvetica,sans-Serif" font-size="10" text-anchor="middle">-queryParameterStripDirective:string</text><text x="1103.455" y="-533.5" fill="#000" font-family="Helvetica,sans-Serif" font-size="10" text-anchor="middle">-dynamicCompression:string</text></g><g id="edge13" class="edge"><title>A8-&gt;A22</title><path fill="none" stroke="#000" d="M1224.7788,-659.2906C1196.3435,-634.2616 1164.7157,-606.4226 1140.8833,-585.4451"/><polygon fill="#000" stroke="#000" points="1133.116 -578.608 1143.595 -581.837 1136.869 -581.912 1140.622 -585.215 1140.622 -585.215 1140.622 -585.215 1136.869 -581.912 1137.649 -588.593 1133.116 -578.608 1133.116 -578.608"/></g><g id="node39" class="node"><title>A38</title><polygon fill="#fff8dc" stroke="#000" points="1447.169 -532.5 1447.169 -572.5 1535.74 -572.5 1535.74 -532.5 1447.169 -532.5"/><text x="1491.455" y="-559.5" fill="#000" font-family="Helvetica,sans-Serif" font-size="10" text-anchor="middle">SubResource</text><polyline fill="none" stroke="#000" points="1447.169 -552.5 1535.74 -552.5"/><text x="1491.455" y="-539.5" fill="#000" font-family="Helvetica,sans-Serif" font-size="10" text-anchor="middle">-id:string</text></g><g id="edge12" class="edge"><title>A8-&gt;A38</title><path fill="none" stroke="#000" d="M1369.0562,-659.4206C1388.7546,-643.5063 1409.7404,-626.0537 1428.4545,-609 1438.5243,-599.8236 1449.0019,-589.154 1458.5615,-579.5741"/><polygon fill="#000" stroke="#000" points="1465.671 -572.504 1461.754 -582.746 1462.126 -576.029 1458.58 -579.555 1458.58 -579.555 1458.58 -579.555 1462.126 -576.029 1455.407 -576.365 1465.671 -572.504 1465.671 -572.504"/></g><g id="edge14" class="edge"><title>A8-&gt;A38</title><path fill="none" stroke="#000" d="M1386.4965,-659.4206C1406.7546,-643.5063 1427.7404,-626.0537 1446.4545,-609 1456.3269,-600.0036 1466.5912,-589.5719 1474.9747,-580.1389"/><polygon fill="#000" stroke="#000" points="1481.525 -572.504 1478.429 -583.023 1478.269 -576.298 1475.014 -580.093 1475.014 -580.093 1475.014 -580.093 1478.269 -576.298 1471.598 -577.164 1481.525 -572.504 1481.525 -572.504"/></g><g id="node10" class="node"><title>A9</title><polygon fill="#fff8dc" stroke="#000" points="1953.61 -496.5 1953.61 -608.5 2103.299 -608.5 2103.299 -496.5 1953.61 -496.5"/><text x="2028.455" y="-595.5" fill="#000" font-family="Helvetica,sans-Serif" font-size="10" text-anchor="middle">Backend</text><polyline fill="none" stroke="#000" points="1953.61 -588.5 2103.299 -588.5"/><text x="2028.455" y="-575.5" fill="#000" font-family="Helvetica,sans-Serif" font-size="10" text-anchor="middle">-address:string</text><text x="2028.455" y="-563.5" fill="#000" font-family="Helvetica,sans-Serif" font-size="10" text-anchor="middle">-httpPort:</text><text x="2028.455" y="-551.5" fill="#000" font-family="Helvetica,sans-Serif" font-size="10" text-anchor="middle">-httpsPort:</text><text x="2028.455" y="-539.5" fill="#000" font-family="Helvetica,sans-Serif" font-size="10" text-anchor="middle">-enabledState:string</text><text x="2028.455" y="-527.5" fill="#000" font-family="Helvetica,sans-Serif" font-size="10" text-anchor="middle">-priority:</text><text x="2028.455" y="-515.5" fill="#000" font-family="Helvetica,sans-Serif" font-size="10" text-anchor="middle">-weight:</text><text x="2028.455" y="-503.5" fill="#000" font-family="Helvetica,sans-Serif" font-size="10" text-anchor="middle">-backendHostHeader:string</text></g><g id="node12" class="node"><title>A11</title><polygon fill="#fff8dc" stroke="#000" points="823.543 -260.5 823.543 -300.5 999.365 -300.5 999.365 -260.5 823.543 -260.5"/><text x="911.455" y="-287.5" fill="#000" font-family="Helvetica,sans-Serif" font-size="10" text-anchor="middle">LoadBalancingSettingsProperties</text><polyline fill="none" stroke="#000" points="823.543 -280.5 999.365 -280.5"/><text x="911.455" y="-267.5" fill="#000" font-family="Helvetica,sans-Serif" font-size="10" text-anchor="middle">-resourceState:ResourceState</text></g><g id="edge15" class="edge"><title>A10-&gt;A11</title><path fill="none" stroke="#000" d="M733.5119,-375.4525C774.1353,-353.7754 827.0189,-325.556 864.5488,-305.5295"/><polygon fill="#000" stroke="#000" points="873.743 -300.623 867.039 -309.301 869.331 -302.978 864.92 -305.331 864.92 -305.331 864.92 -305.331 869.331 -302.978 862.802 -301.361 873.743 -300.623 873.743 -300.623"/></g><g id="edge16" class="edge"><title>A11-&gt;A30</title><path fill="none" stroke="#000" d="M929.9935,-260.3765C950.1396,-238.5085 982.3972,-203.4938 1004.462,-179.5432"/><polygon fill="#000" stroke="#000" points="1011.522 -171.88 1008.056 -182.284 1008.134 -175.557 1004.746 -179.235 1004.746 -179.235 1004.746 -179.235 1008.134 -175.557 1001.437 -176.186 1011.522 -171.88 1011.522 -171.88"/></g><g id="node13" class="node"><title>A12</title><polygon fill="#fff8dc" stroke="#000" points="450.928 -526.5 450.928 -578.5 673.981 -578.5 673.981 -526.5 450.928 -526.5"/><text x="562.455" y="-565.5" fill="#000" font-family="Helvetica,sans-Serif" font-size="10" text-anchor="middle">LoadBalancingSettingsListResult</text><polyline fill="none" stroke="#000" points="450.928 -558.5 673.981 -558.5"/><text x="562.455" y="-545.5" fill="#000" font-family="Helvetica,sans-Serif" font-size="10" text-anchor="middle">-value:Array&lt;LoadBalancingSettingsModel&gt;</text><text x="562.455" y="-533.5" fill="#000" font-family="Helvetica,sans-Serif" font-size="10" text-anchor="middle">-nextLink:string</text></g><g id="edge17" class="edge"><title>A12-&gt;A10</title><path fill="none" stroke="#000" d="M582.5558,-526.2416C599.2824,-504.3914 623.3714,-472.9238 642.5492,-447.8718"/><polygon fill="#000" stroke="#000" points="648.847 -439.645 646.341 -450.321 645.808 -443.615 642.768 -447.586 642.768 -447.586 642.768 -447.586 645.808 -443.615 639.195 -444.85 648.847 -439.645 648.847 -439.645"/></g><g id="node14" class="node"><title>A13</title><polygon fill="#fff8dc" stroke="#000" points="804.371 -375.5 804.371 -439.5 1018.538 -439.5 1018.538 -375.5 804.371 -375.5"/><text x="911.455" y="-426.5" fill="#000" font-family="Helvetica,sans-Serif" font-size="10" text-anchor="middle">LoadBalancingSettingsUpdateParameters</text><polyline fill="none" stroke="#000" points="804.371 -419.5 1018.538 -419.5"/><text x="911.455" y="-406.5" fill="#000" font-family="Helvetica,sans-Serif" font-size="10" text-anchor="middle">-sampleSize:</text><text x="911.455" y="-394.5" fill="#000" font-family="Helvetica,sans-Serif" font-size="10" text-anchor="middle">-successfulSamplesRequired:</text><text x="911.455" y="-382.5" fill="#000" font-family="Helvetica,sans-Serif" font-size="10" text-anchor="middle">-additionalLatencyMilliseconds:</text></g><g id="edge39" class="edge"><title>A13-&gt;A11</title><path fill="none" stroke="#000" stroke-dasharray="5 2" d="M911.4545,-365.4244C911.4545,-343.6114 911.4545,-317.9777 911.4545,-300.6235"/><polygon fill="none" stroke="#000" points="907.955 -365.452 911.455 -375.452 914.955 -365.453 907.955 -365.452"/><text x="919.907" y="-315.75" fill="#000" font-family="Helvetica,sans-Serif" font-size="10" text-anchor="middle">allOf</text></g><g id="node16" class="node"><title>A15</title><polygon fill="#fff8dc" stroke="#000" points="1061.828 -260.5 1061.828 -300.5 1227.081 -300.5 1227.081 -260.5 1061.828 -260.5"/><text x="1144.455" y="-287.5" fill="#000" font-family="Helvetica,sans-Serif" font-size="10" text-anchor="middle">HealthProbeSettingsProperties</text><polyline fill="none" stroke="#000" points="1061.828 -280.5 1227.081 -280.5"/><text x="1144.455" y="-267.5" fill="#000" font-family="Helvetica,sans-Serif" font-size="10" text-anchor="middle">-resourceState:ResourceState</text></g><g id="edge18" class="edge"><title>A14-&gt;A15</title><path fill="none" stroke="#000" d="M1144.4545,-375.4525C1144.4545,-355.6124 1144.4545,-330.292 1144.4545,-310.7885"/><polygon fill="#000" stroke="#000" points="1144.455 -300.623 1148.955 -310.623 1144.455 -305.623 1144.455 -310.623 1144.455 -310.623 1144.455 -310.623 1144.455 -305.623 1139.955 -310.624 1144.455 -300.623 1144.455 -300.623"/></g><g id="edge19" class="edge"><title>A15-&gt;A30</title><path fill="none" stroke="#000" d="M1126.074,-260.3765C1106.1001,-238.5085 1074.1181,-203.4938 1052.242,-179.5432"/><polygon fill="#000" stroke="#000" points="1045.243 -171.88 1055.309 -176.229 1048.614 -175.572 1051.987 -179.264 1051.987 -179.264 1051.987 -179.264 1048.614 -175.572 1048.664 -182.298 1045.243 -171.88 1045.243 -171.88"/></g><g id="node17" class="node"><title>A16</title><polygon fill="#fff8dc" stroke="#000" points="1216.212 -526.5 1216.212 -578.5 1428.697 -578.5 1428.697 -526.5 1216.212 -526.5"/><text x="1322.455" y="-565.5" fill="#000" font-family="Helvetica,sans-Serif" font-size="10" text-anchor="middle">HealthProbeSettingsListResult</text><polyline fill="none" stroke="#000" points="1216.212 -558.5 1428.697 -558.5"/><text x="1322.455" y="-545.5" fill="#000" font-family="Helvetica,sans-Serif" font-size="10" text-anchor="middle">-value:Array&lt;HealthProbeSettingsModel&gt;</text><text x="1322.455" y="-533.5" fill="#000" font-family="Helvetica,sans-Serif" font-size="10" text-anchor="middle">-nextLink:string</text></g><g id="edge20" class="edge"><title>A16-&gt;A14</title><path fill="none" stroke="#000" d="M1290.22,-526.2416C1262.814,-503.9164 1223.0828,-471.5511 1192.0201,-446.2473"/><polygon fill="#000" stroke="#000" points="1183.915 -439.645 1194.511 -442.472 1187.792 -442.803 1191.668 -445.961 1191.668 -445.961 1191.668 -445.961 1187.792 -442.803 1188.826 -449.45 1183.915 -439.645 1183.915 -439.645"/></g><g id="node18" class="node"><title>A17</title><polygon fill="#fff8dc" stroke="#000" points="1270.656 -375.5 1270.656 -439.5 1474.253 -439.5 1474.253 -375.5 1270.656 -375.5"/><text x="1372.455" y="-426.5" fill="#000" font-family="Helvetica,sans-Serif" font-size="10" text-anchor="middle">HealthProbeSettingsUpdateParameters</text><polyline fill="none" stroke="#000" points="1270.656 -419.5 1474.253 -419.5"/><text x="1372.455" y="-406.5" fill="#000" font-family="Helvetica,sans-Serif" font-size="10" text-anchor="middle">-path:string</text><text x="1372.455" y="-394.5" fill="#000" font-family="Helvetica,sans-Serif" font-size="10" text-anchor="middle">-protocol:string</text><text x="1372.455" y="-382.5" fill="#000" font-family="Helvetica,sans-Serif" font-size="10" text-anchor="middle">-intervalInSeconds:</text></g><g id="edge41" class="edge"><title>A17-&gt;A15</title><path fill="none" stroke="#000" stroke-dasharray="5 2" d="M1306.0803,-370.5284C1265.1382,-347.723 1214.2043,-319.3519 1180.5818,-300.6235"/><polygon fill="none" stroke="#000" points="1304.481 -373.644 1314.92 -375.452 1307.888 -367.529 1304.481 -373.644"/><text x="1200.53" y="-299.06" fill="#000" font-family="Helvetica,sans-Serif" font-size="10" text-anchor="middle">allOf</text></g><g id="node21" class="node"><title>A20</title><polygon fill="#fff8dc" stroke="#000" points="1502.216 -260.5 1502.216 -300.5 1664.693 -300.5 1664.693 -260.5 1502.216 -260.5"/><text x="1583.455" y="-287.5" fill="#000" font-family="Helvetica,sans-Serif" font-size="10" text-anchor="middle">BackendPoolProperties</text><polyline fill="none" stroke="#000" points="1502.216 -280.5 1664.693 -280.5"/><text x="1583.455" y="-267.5" fill="#000" font-family="Helvetica,sans-Serif" font-size="10" text-anchor="middle">-resourceState:ResourceState</text></g><g id="edge21" class="edge"><title>A18-&gt;A20</title><path fill="none" stroke="#000" d="M1749.4345,-375.4525C1711.7028,-353.8672 1662.6316,-325.795 1627.6527,-305.7845"/><polygon fill="#000" stroke="#000" points="1618.631 -300.623 1629.546 -301.683 1622.971 -303.106 1627.311 -305.589 1627.311 -305.589 1627.311 -305.589 1622.971 -303.106 1625.077 -309.495 1618.631 -300.623 1618.631 -300.623"/></g><g id="node20" class="node"><title>A19</title><polygon fill="#fff8dc" stroke="#000" points="1611.655 -689.5 1611.655 -753.5 1805.255 -753.5 1805.255 -689.5 1611.655 -689.5"/><text x="1708.455" y="-740.5" fill="#000" font-family="Helvetica,sans-Serif" font-size="10" text-anchor="middle">BackendPoolUpdateParameters</text><polyline fill="none" stroke="#000" points="1611.655 -733.5 1805.255 -733.5"/><text x="1708.455" y="-720.5" fill="#000" font-family="Helvetica,sans-Serif" font-size="10" text-anchor="middle">-backends:Array&lt;Backend&gt;</text><text x="1708.455" y="-708.5" fill="#000" font-family="Helvetica,sans-Serif" font-size="10" text-anchor="middle">-loadBalancingSettings:SubResource</text><text x="1708.455" y="-696.5" fill="#000" font-family="Helvetica,sans-Serif" font-size="10" text-anchor="middle">-healthProbeSettings:SubResource</text></g><g id="edge22" class="edge"><title>A19-&gt;A9</title><path fill="none" stroke="#000" d="M1759.3439,-689.3726C1776.5386,-679.0927 1796.0468,-668.0429 1814.4545,-659 1868.1592,-632.6171 1886.1909,-636.2623 1939.4545,-609 1941.0226,-608.1974 1942.5986,-607.3753 1944.1797,-606.5362"/><polygon fill="#000" stroke="#000" points="1953.271 -601.564 1946.657 -610.311 1948.884 -603.963 1944.497 -606.362 1944.497 -606.362 1944.497 -606.362 1948.884 -603.963 1942.338 -602.414 1953.271 -601.564 1953.271 -601.564"/></g><g id="edge43" class="edge"><title>A19-&gt;A20</title><path fill="none" stroke="#000" stroke-dasharray="5 2" d="M1770.683,-684.3198C1785.0059,-675.8985 1800.2147,-667.0643 1814.4545,-659 1854.949,-636.067 1882.6683,-648.9993 1906.4545,-609 1933.7142,-563.1595 1939.9779,-410.4804 1906.4545,-369 1839.8814,-286.6252 1774.3898,-351.0881 1673.4545,-319 1657.5825,-313.9542 1640.6735,-307.1296 1625.8473,-300.6275"/><polygon fill="none" stroke="#000" points="1768.734 -681.406 1761.896 -689.499 1772.288 -687.437 1768.734 -681.406"/><text x="1645.84" y="-297.098" fill="#000" font-family="Helvetica,sans-Serif" font-size="10" text-anchor="middle">allOf</text></g><g id="edge23" class="edge"><title>A19-&gt;A38</title><path fill="none" stroke="#000" d="M1648.0395,-689.4958C1613.5276,-668.3251 1570.4314,-639.0212 1535.4545,-609 1525.3287,-600.3089 1515.0906,-589.8676 1506.8722,-580.3383"/><polygon fill="#000" stroke="#000" points="1500.491 -572.607 1510.327 -577.455 1503.673 -576.463 1506.856 -580.319 1506.856 -580.319 1506.856 -580.319 1503.673 -576.463 1503.386 -583.183 1500.491 -572.607 1500.491 -572.607"/></g><g id="edge24" class="edge"><title>A19-&gt;A38</title><path fill="none" stroke="#000" d="M1663.4868,-689.4958C1631.5276,-668.3251 1588.4314,-639.0212 1553.4545,-609 1543.2274,-600.222 1532.8858,-589.6586 1523.5466,-580.0527"/><polygon fill="#000" stroke="#000" points="1516.293 -572.607 1526.494 -576.63 1519.782 -576.188 1523.271 -579.77 1523.271 -579.77 1523.271 -579.77 1519.782 -576.188 1520.047 -582.91 1516.293 -572.607 1516.293 -572.607"/></g><g id="edge25" class="edge"><title>A20-&gt;A30</title><path fill="none" stroke="#000" d="M1502.1584,-261.8971C1388.3421,-235.8527 1184.3698,-189.1779 1085.4111,-166.5333"/><polygon fill="#000" stroke="#000" points="1075.595 -164.287 1086.347 -162.131 1080.469 -165.402 1085.343 -166.518 1085.343 -166.518 1085.343 -166.518 1080.469 -165.402 1084.339 -170.904 1075.595 -164.287 1075.595 -164.287"/></g><g id="node22" class="node"><title>A21</title><polygon fill="#fff8dc" stroke="#000" points="1745.215 -526.5 1745.215 -578.5 1897.694 -578.5 1897.694 -526.5 1745.215 -526.5"/><text x="1821.455" y="-565.5" fill="#000" font-family="Helvetica,sans-Serif" font-size="10" text-anchor="middle">BackendPoolListResult</text><polyline fill="none" stroke="#000" points="1745.215 -558.5 1897.694 -558.5"/><text x="1821.455" y="-545.5" fill="#000" font-family="Helvetica,sans-Serif" font-size="10" text-anchor="middle">-value:Array&lt;BackendPool&gt;</text><text x="1821.455" y="-533.5" fill="#000" font-family="Helvetica,sans-Serif" font-size="10" text-anchor="middle">-nextLink:string</text></g><g id="edge26" class="edge"><title>A21-&gt;A18</title><path fill="none" stroke="#000" d="M1818.557,-526.2416C1816.2089,-504.9614 1812.8541,-474.5591 1810.1271,-449.8452"/><polygon fill="#000" stroke="#000" points="1809.002 -439.645 1814.571 -449.091 1809.55 -444.615 1810.098 -449.585 1810.098 -449.585 1810.098 -449.585 1809.55 -444.615 1805.626 -450.078 1809.002 -439.645 1809.002 -439.645"/></g><g id="node24" class="node"><title>A23</title><polygon fill="#fff8dc" stroke="#000" points="1609.275 -.5 1609.275 -64.5 1805.634 -64.5 1805.634 -.5 1609.275 -.5"/><text x="1707.455" y="-51.5" fill="#000" font-family="Helvetica,sans-Serif" font-size="10" text-anchor="middle">KeyVaultCertificateSourceParameters</text><polyline fill="none" stroke="#000" points="1609.275 -44.5 1805.634 -44.5"/><text x="1707.455" y="-31.5" fill="#000" font-family="Helvetica,sans-Serif" font-size="10" text-anchor="middle">-vault:Object</text><text x="1707.455" y="-19.5" fill="#000" font-family="Helvetica,sans-Serif" font-size="10" text-anchor="middle">-secretName:string</text><text x="1707.455" y="-7.5" fill="#000" font-family="Helvetica,sans-Serif" font-size="10" text-anchor="middle">-secretVersion:string</text></g><g id="node25" class="node"><title>A24</title><polygon fill="#fff8dc" stroke="#000" points="1823.611 -12.5 1823.611 -52.5 2023.298 -52.5 2023.298 -12.5 1823.611 -12.5"/><text x="1923.455" y="-39.5" fill="#000" font-family="Helvetica,sans-Serif" font-size="10" text-anchor="middle">FrontdoorCertificateSourceParameters</text><polyline fill="none" stroke="#000" points="1823.611 -32.5 2023.298 -32.5"/><text x="1923.455" y="-19.5" fill="#000" font-family="Helvetica,sans-Serif" font-size="10" text-anchor="middle">-certificateType:string</text></g><g id="node26" class="node"><title>A25</title><polygon fill="#fff8dc" stroke="#000" points="1628.379 -115.5 1628.379 -191.5 2002.531 -191.5 2002.531 -115.5 1628.379 -115.5"/><text x="1815.455" y="-178.5" fill="#000" font-family="Helvetica,sans-Serif" font-size="10" text-anchor="middle">CustomHttpsConfiguration</text><polyline fill="none" stroke="#000" points="1628.379 -171.5 2002.531 -171.5"/><text x="1815.455" y="-158.5" fill="#000" font-family="Helvetica,sans-Serif" font-size="10" text-anchor="middle">-certificateSource:string</text><text x="1815.455" y="-146.5" fill="#000" font-family="Helvetica,sans-Serif" font-size="10" text-anchor="middle">-protocolType:string</text><text x="1815.455" y="-134.5" fill="#000" font-family="Helvetica,sans-Serif" font-size="10" text-anchor="middle">-keyVaultCertificateSourceParameters:KeyVaultCertificateSourceParameters</text><text x="1815.455" y="-122.5" fill="#000" font-family="Helvetica,sans-Serif" font-size="10" text-anchor="middle">-frontdoorCertificateSourceParameters:FrontdoorCertificateSourceParameters</text></g><g id="edge27" class="edge"><title>A25-&gt;A23</title><path fill="none" stroke="#000" d="M1781.2826,-115.2148C1769.0814,-101.5449 1755.3118,-86.1178 1742.9977,-72.3216"/><polygon fill="#000" stroke="#000" points="1736.326 -64.846 1746.342 -69.31 1739.655 -68.576 1742.985 -72.307 1742.985 -72.307 1742.985 -72.307 1739.655 -68.576 1739.627 -75.303 1736.326 -64.846 1736.326 -64.846"/></g><g id="edge28" class="edge"><title>A25-&gt;A24</title><path fill="none" stroke="#000" d="M1849.6264,-115.2148C1865.5587,-97.3647 1884.1652,-76.5186 1898.7131,-60.2195"/><polygon fill="#000" stroke="#000" points="1905.499 -52.617 1902.197 -63.074 1902.17 -56.347 1898.84 -60.077 1898.84 -60.077 1898.84 -60.077 1902.17 -56.347 1895.483 -57.081 1905.499 -52.617 1905.499 -52.617"/></g><g id="node28" class="node"><title>A27</title><polygon fill="#fff8dc" stroke="#000" points="1682.272 -242.5 1682.272 -318.5 1948.637 -318.5 1948.637 -242.5 1682.272 -242.5"/><text x="1815.455" y="-305.5" fill="#000" font-family="Helvetica,sans-Serif" font-size="10" text-anchor="middle">FrontendEndpointProperties</text><polyline fill="none" stroke="#000" points="1682.272 -298.5 1948.637 -298.5"/><text x="1815.455" y="-285.5" fill="#000" font-family="Helvetica,sans-Serif" font-size="10" text-anchor="middle">-resourceState:ResourceState</text><text x="1815.455" y="-273.5" fill="#000" font-family="Helvetica,sans-Serif" font-size="10" text-anchor="middle">-customHttpsProvisioningState:string</text><text x="1815.455" y="-261.5" fill="#000" font-family="Helvetica,sans-Serif" font-size="10" text-anchor="middle">-customHttpsProvisioningSubstate:string</text><text x="1815.455" y="-249.5" fill="#000" font-family="Helvetica,sans-Serif" font-size="10" text-anchor="middle">-customHttpsConfiguration:CustomHttpsConfiguration</text></g><g id="edge29" class="edge"><title>A26-&gt;A27</title><path fill="none" stroke="#000" d="M1650.2221,-375.4525C1677.4544,-359.8032 1710.6202,-340.7442 1740.0715,-323.8196"/><polygon fill="#000" stroke="#000" points="1749.082 -318.642 1742.653 -327.526 1744.746 -321.133 1740.411 -323.624 1740.411 -323.624 1740.411 -323.624 1744.746 -321.133 1738.169 -319.723 1749.082 -318.642 1749.082 -318.642"/></g><g id="edge31" class="edge"><title>A27-&gt;A25</title><path fill="none" stroke="#000" d="M1815.4545,-242.3958C1815.4545,-229.5868 1815.4545,-215.1272 1815.4545,-201.6491"/><polygon fill="#000" stroke="#000" points="1815.455 -191.577 1819.955 -201.577 1815.455 -196.577 1815.455 -201.577 1815.455 -201.577 1815.455 -201.577 1815.455 -196.577 1810.955 -201.577 1815.455 -191.577 1815.455 -191.577"/></g><g id="edge30" class="edge"><title>A27-&gt;A30</title><path fill="none" stroke="#000" d="M1682.1656,-243.8275C1679.2395,-243.1955 1676.333,-242.5852 1673.4545,-242 1458.6354,-198.3288 1199.1081,-170.033 1085.911,-158.8812"/><polygon fill="#000" stroke="#000" points="1075.743 -157.887 1086.134 -154.382 1080.719 -158.374 1085.696 -158.86 1085.696 -158.86 1085.696 -158.86 1080.719 -158.374 1085.258 -163.339 1075.743 -157.887 1075.743 -157.887"/></g><g id="node29" class="node"><title>A28</title><polygon fill="#fff8dc" stroke="#000" points="1953.617 -369.5 1953.617 -445.5 2163.292 -445.5 2163.292 -369.5 1953.617 -369.5"/><text x="2058.454" y="-432.5" fill="#000" font-family="Helvetica,sans-Serif" font-size="10" text-anchor="middle">FrontendEndpointUpdateParameters</text><polyline fill="none" stroke="#000" points="1953.617 -425.5 2163.292 -425.5"/><text x="2058.454" y="-412.5" fill="#000" font-family="Helvetica,sans-Serif" font-size="10" text-anchor="middle">-hostName:string</text><text x="2058.454" y="-400.5" fill="#000" font-family="Helvetica,sans-Serif" font-size="10" text-anchor="middle">-sessionAffinityEnabledState:string</text><text x="2058.454" y="-388.5" fill="#000" font-family="Helvetica,sans-Serif" font-size="10" text-anchor="middle">-sessionAffinityTtlSeconds:</text><text x="2058.454" y="-376.5" fill="#000" font-family="Helvetica,sans-Serif" font-size="10" text-anchor="middle">-webApplicationFirewallPolicyLink:Object</text></g><g id="edge45" class="edge"><title>A28-&gt;A27</title><path fill="none" stroke="#000" stroke-dasharray="5 2" d="M1976.403,-364.6171C1947.8598,-349.6995 1916.0584,-333.079 1888.3111,-318.5773"/><polygon fill="none" stroke="#000" points="1975.063 -367.866 1985.546 -369.396 1978.305 -361.662 1975.063 -367.866"/><text x="1908.291" y="-316.482" fill="#000" font-family="Helvetica,sans-Serif" font-size="10" text-anchor="middle">allOf</text></g><g id="node30" class="node"><title>A29</title><polygon fill="#fff8dc" stroke="#000" points="1553.934 -526.5 1553.934 -578.5 1726.976 -578.5 1726.976 -526.5 1553.934 -526.5"/><text x="1640.455" y="-565.5" fill="#000" font-family="Helvetica,sans-Serif" font-size="10" text-anchor="middle">FrontendEndpointsListResult</text><polyline fill="none" stroke="#000" points="1553.934 -558.5 1726.976 -558.5"/><text x="1640.455" y="-545.5" fill="#000" font-family="Helvetica,sans-Serif" font-size="10" text-anchor="middle">-value:Array&lt;FrontendEndpoint&gt;</text><text x="1640.455" y="-533.5" fill="#000" font-family="Helvetica,sans-Serif" font-size="10" text-anchor="middle">-nextLink:string</text></g><g id="edge32" class="edge"><title>A29-&gt;A26</title><path fill="none" stroke="#000" d="M1632.1242,-526.2416C1625.313,-504.7714 1615.5559,-474.0154 1607.6786,-449.1846"/><polygon fill="#000" stroke="#000" points="1604.652 -439.645 1611.966 -447.816 1606.164 -444.411 1607.676 -449.177 1607.676 -449.177 1607.676 -449.177 1606.164 -444.411 1603.387 -450.538 1604.652 -439.645 1604.652 -439.645"/></g><g id="node32" class="node"><title>A31</title><polygon fill="#fff8dc" stroke="#000" points="1993.832 -701.5 1993.832 -741.5 2149.077 -741.5 2149.077 -701.5 1993.832 -701.5"/><text x="2071.454" y="-728.5" fill="#000" font-family="Helvetica,sans-Serif" font-size="10" text-anchor="middle">ValidateCustomDomainInput</text><polyline fill="none" stroke="#000" points="1993.832 -721.5 2149.077 -721.5"/><text x="2071.454" y="-708.5" fill="#000" font-family="Helvetica,sans-Serif" font-size="10" text-anchor="middle">-hostName:string</text></g><g id="node33" class="node"><title>A32</title><polygon fill="#fff8dc" stroke="#000" points="2167.439 -689.5 2167.439 -753.5 2345.47 -753.5 2345.47 -689.5 2167.439 -689.5"/><text x="2256.454" y="-740.5" fill="#000" font-family="Helvetica,sans-Serif" font-size="10" text-anchor="middle">ValidateCustomDomainOutput</text><polyline fill="none" stroke="#000" points="2167.439 -733.5 2345.47 -733.5"/><text x="2256.454" y="-720.5" fill="#000" font-family="Helvetica,sans-Serif" font-size="10" text-anchor="middle">-customDomainValidated:boolean</text><text x="2256.454" y="-708.5" fill="#000" font-family="Helvetica,sans-Serif" font-size="10" text-anchor="middle">-reason:string</text><text x="2256.454" y="-696.5" fill="#000" font-family="Helvetica,sans-Serif" font-size="10" text-anchor="middle">-message:string</text></g><g id="node34" class="node"><title>A33</title><polygon fill="#fff8dc" stroke="#000" points="2363.896 -695.5 2363.896 -747.5 2463.014 -747.5 2463.014 -695.5 2363.896 -695.5"/><text x="2413.454" y="-734.5" fill="#000" font-family="Helvetica,sans-Serif" font-size="10" text-anchor="middle">ErrorResponse</text><polyline fill="none" stroke="#000" points="2363.896 -727.5 2463.014 -727.5"/><text x="2413.454" y="-714.5" fill="#000" font-family="Helvetica,sans-Serif" font-size="10" text-anchor="middle">-code:string</text><text x="2413.454" y="-702.5" fill="#000" font-family="Helvetica,sans-Serif" font-size="10" text-anchor="middle">-message:string</text></g><g id="node35" class="node"><title>A34</title><polygon fill="#fff8dc" stroke="#000" points="2481.226 -695.5 2481.226 -747.5 2633.684 -747.5 2633.684 -695.5 2481.226 -695.5"/><text x="2557.454" y="-734.5" fill="#000" font-family="Helvetica,sans-Serif" font-size="10" text-anchor="middle">CheckNameAvailabilityInput</text><polyline fill="none" stroke="#000" points="2481.226 -727.5 2633.684 -727.5"/><text x="2557.454" y="-714.5" fill="#000" font-family="Helvetica,sans-Serif" font-size="10" text-anchor="middle">-name:string</text><text x="2557.454" y="-702.5" fill="#000" font-family="Helvetica,sans-Serif" font-size="10" text-anchor="middle">-type:ResourceType</text></g><g id="node37" class="node"><title>A36</title><polygon fill="#fff8dc" stroke="#000" points="2510.949 -534.5 2510.949 -570.5 2603.96 -570.5 2603.96 -534.5 2510.949 -534.5"/><text x="2557.454" y="-549.5" fill="#000" font-family="Helvetica,sans-Serif" font-size="10" text-anchor="middle">ResourceType</text></g><g id="edge33" class="edge"><title>A34-&gt;A36</title><path fill="none" stroke="#000" d="M2557.4545,-695.4641C2557.4545,-664.3526 2557.4545,-612.5016 2557.4545,-580.5328"/><polygon fill="#000" stroke="#000" points="2557.454 -570.512 2561.955 -580.512 2557.454 -575.512 2557.455 -580.512 2557.455 -580.512 2557.455 -580.512 2557.454 -575.512 2552.955 -580.512 2557.454 -570.512 2557.454 -570.512"/></g><g id="node36" class="node"><title>A35</title><polygon fill="#fff8dc" stroke="#000" points="2651.336 -689.5 2651.336 -753.5 2811.573 -753.5 2811.573 -689.5 2651.336 -689.5"/><text x="2731.454" y="-740.5" fill="#000" font-family="Helvetica,sans-Serif" font-size="10" text-anchor="middle">CheckNameAvailabilityOutput</text><polyline fill="none" stroke="#000" points="2651.336 -733.5 2811.573 -733.5"/><text x="2731.454" y="-720.5" fill="#000" font-family="Helvetica,sans-Serif" font-size="10" text-anchor="middle">-nameAvailability:string</text><text x="2731.454" y="-708.5" fill="#000" font-family="Helvetica,sans-Serif" font-size="10" text-anchor="middle">-reason:string</text><text x="2731.454" y="-696.5" fill="#000" font-family="Helvetica,sans-Serif" font-size="10" text-anchor="middle">-message:string</text></g><g id="node38" class="node"><title>A37</title><polygon fill="#fff8dc" stroke="#000" points="154.669 -677.5 154.669 -765.5 288.24 -765.5 288.24 -677.5 154.669 -677.5"/><text x="221.454" y="-752.5" fill="#000" font-family="Helvetica,sans-Serif" font-size="10" text-anchor="middle">Resource</text><polyline fill="none" stroke="#000" points="154.669 -745.5 288.24 -745.5"/><text x="221.454" y="-732.5" fill="#000" font-family="Helvetica,sans-Serif" font-size="10" text-anchor="middle">-id:string</text><text x="221.454" y="-720.5" fill="#000" font-family="Helvetica,sans-Serif" font-size="10" text-anchor="middle">-name:string</text><text x="221.454" y="-708.5" fill="#000" font-family="Helvetica,sans-Serif" font-size="10" text-anchor="middle">-type:string</text><text x="221.454" y="-696.5" fill="#000" font-family="Helvetica,sans-Serif" font-size="10" text-anchor="middle">-location:string</text><text x="221.454" y="-684.5" fill="#000" font-family="Helvetica,sans-Serif" font-size="10" text-anchor="middle">-tags:Dictionary&lt;string&gt;</text></g><g id="edge34" class="edge"><title>A37-&gt;A0</title><path fill="none" stroke="#000" stroke-dasharray="5 2" d="M196.9551,-667.7287C182.1933,-635.3292 164.2523,-595.9522 153.6255,-572.6285"/><polygon fill="none" stroke="#000" points="193.893 -669.448 201.224 -677.097 200.262 -666.546 193.893 -669.448"/><text x="168.833" y="-582.619" fill="#000" font-family="Helvetica,sans-Serif" font-size="10" text-anchor="middle">allOf</text></g><g id="edge36" class="edge"><title>A38-&gt;A5</title><path fill="none" stroke="#000" stroke-dasharray="5 2" d="M1471.8145,-524.1851C1462.7046,-513.3926 1450.9055,-502.2047 1437.4545,-496 1258.3855,-413.3987 744.1737,-487.8091 551.4545,-446 543.6148,-444.2992 535.581,-442.0648 527.6452,-439.5273"/><polygon fill="none" stroke="#000" points="1469.278 -526.62 1478.24 -532.272 1474.759 -522.265 1469.278 -526.62"/><text x="547.475" y="-433.92" fill="#000" font-family="Helvetica,sans-Serif" font-size="10" text-anchor="middle">allOf</text></g><g id="edge38" class="edge"><title>A38-&gt;A10</title><path fill="none" stroke="#000" stroke-dasharray="5 2" d="M1471.7484,-524.3264C1462.6278,-513.5569 1450.8385,-502.348 1437.4545,-496 1308.1613,-434.6771 935.9318,-473.2648 795.4545,-446 786.2971,-444.2227 776.8607,-441.9922 767.4832,-439.5052"/><polygon fill="none" stroke="#000" points="1469.211 -526.757 1478.185 -532.389 1474.681 -522.39 1469.211 -526.757"/><text x="787.161" y="-432.928" fill="#000" font-family="Helvetica,sans-Serif" font-size="10" text-anchor="middle">allOf</text></g><g id="edge40" class="edge"><title>A38-&gt;A14</title><path fill="none" stroke="#000" stroke-dasharray="5 2" d="M1470.2456,-524.6808C1461.1449,-514.384 1449.771,-503.4233 1437.4545,-496 1367.8086,-454.0239 1339.2036,-469.8249 1261.4545,-446 1254.7075,-443.9325 1247.7557,-441.7582 1240.7642,-439.5392"/><polygon fill="none" stroke="#000" points="1467.609 -526.983 1476.74 -532.356 1472.952 -522.461 1467.609 -526.983"/><text x="1260.597" y="-433.958" fill="#000" font-family="Helvetica,sans-Serif" font-size="10" text-anchor="middle">allOf</text></g><g id="edge42" class="edge"><title>A38-&gt;A18</title><path fill="none" stroke="#000" stroke-dasharray="5 2" d="M1512.54,-524.5216C1521.4285,-514.3319 1532.4903,-503.4882 1544.4545,-496 1607.9671,-456.2486 1634.6759,-470.5849 1705.4545,-446 1711.3416,-443.9551 1717.4003,-441.7861 1723.485,-439.5606"/><polygon fill="none" stroke="#000" points="1509.621 -522.556 1505.902 -532.477 1514.996 -527.041 1509.621 -522.556"/><text x="1709.355" y="-450.715" fill="#000" font-family="Helvetica,sans-Serif" font-size="10" text-anchor="middle">allOf</text></g><g id="edge44" class="edge"><title>A38-&gt;A26</title><path fill="none" stroke="#000" stroke-dasharray="5 2" d="M1511.7528,-523.9247C1528.9628,-499.697 1553.6337,-464.9661 1571.5475,-439.7477"/><polygon fill="none" stroke="#000" points="1508.714 -522.159 1505.776 -532.338 1514.421 -526.213 1508.714 -522.159"/><text x="1567.941" y="-456.42" fill="#000" font-family="Helvetica,sans-Serif" font-size="10" text-anchor="middle">allOf</text></g></g></svg>